<?xml version="1.0" encoding="UTF-8" standalone="no"?>
<!-- Created with Inkscape (http://www.inkscape.org/) -->

<svg
   width="512"
   height="512"
   viewBox="0 0 512 512"
   version="1.1"
   id="svg1"
   xmlns="http://www.w3.org/2000/svg"
   xmlns:svg="http://www.w3.org/2000/svg">
  <defs
     id="defs1" />
  <g
     id="layer1">
    <path
       style="fill:#000000"
       id="path1"
       d="m 53.803996,274.99409 c 0.101081,8.68542 -1.662471,17.24159 -3.220097,25.74274 -3.066882,15.29899 -6.166587,30.59579 -9.643692,45.80751 -2.756185,11.1974 -5.013347,22.51278 -6.915194,33.88485 -0.660088,4.13574 -1.212935,8.29111 -1.407964,12.47661 -0.05597,1.76061 -0.0208,3.52237 -0.0012,5.2833 -0.02401,2.35277 0.806338,7.45059 2.560755,9.22148 1.775629,1.79229 3.781712,3.34056 5.672568,5.01084 7.836805,2.85519 15.666004,5.72854 23.480444,8.65038 15.098399,5.78043 30.369461,11.07185 45.822564,15.81904 9.32016,2.76981 18.7324,5.25835 28.35326,6.73671 5.74468,0.88274 7.94644,1.00186 13.69173,1.53523 9.67315,0.73516 19.37763,0.89932 29.07492,0.91958 7.11076,-0.0278 14.22151,-0.0535 21.33233,-0.0663 10.37432,0.0746 20.75441,-0.19573 31.12532,0.11745 6.58593,0.40958 13.20589,0.41482 19.75363,1.27987 5.81205,0.73519 11.52486,2.05724 17.36215,2.58763 1.59243,-0.13678 3.21705,-0.0636 4.77729,-0.41034 10.57518,-2.34986 15.56493,-11.98937 20.0621,-20.77369 6.42445,-14.0352 9.76583,-29.11917 12.3688,-44.25044 1.95787,-12.71405 2.45565,-25.58078 2.71092,-38.42209 -0.0964,-5.03699 0.40852,-10.16849 -0.31578,-15.1834 -0.19981,-1.38344 -0.29581,-2.81464 -0.80999,-4.11443 -0.88425,-2.23531 -2.22998,-4.25924 -3.34497,-6.38886 -2.05726,-1.73636 -3.89272,-3.77621 -6.17179,-5.20906 -4.05055,-2.54659 -11.37335,-4.67763 -15.84527,-5.81604 -11.06762,-2.81748 -22.42152,-4.3291 -33.69924,-5.99875 -21.90166,-3.04028 -43.7362,-6.49169 -65.40382,-10.90624 -17.84269,-3.4592 -35.16571,-8.99227 -52.24101,-15.12887 -10.59025,-3.75174 -20.85282,-8.22251 -30.72284,-13.57236 -3.122533,-1.68684 -5.897378,-3.86962 -8.994076,-5.59066 -3.754919,-2.08914 -7.993301,-2.73402 -12.205602,-3.11964 -2.693296,-0.18561 -5.393582,-0.22942 -8.092416,-0.23396 -18.707689,-0.0263 -18.744838,26.4304 -0.03715,26.45667 v 0 c 1.950503,0.002 3.901557,0.0299 5.849541,0.13555 0.858222,0.0652 1.888667,0.0828 1.887837,0.082 -0.09573,-0.0891 -0.448641,-0.26591 -0.328165,-0.21503 0.297299,0.12556 0.574759,0.2937 0.862138,0.44055 -0.137011,-0.10125 -0.495097,-0.15557 -0.411034,-0.30374 0.08353,-0.14724 0.292128,0.17184 0.43071,0.26906 0.503942,0.35351 0.989942,0.73229 1.496109,1.08261 1.544031,1.06865 2.490842,1.66518 4.117743,2.62813 0.935567,0.55375 1.882604,1.08789 2.823906,1.63184 11.050989,5.9818 22.538079,11.00453 34.387149,15.21081 18.27431,6.54883 36.81208,12.44815 55.90034,16.15215 22.13692,4.50155 44.43829,8.05396 66.81388,11.15372 10.12125,1.49204 20.27386,2.87251 30.23785,5.24769 1.98156,0.47236 3.92769,1.08264 5.89159,1.6238 0.8131,0.22405 1.65968,0.99334 2.43939,0.67181 0.47798,-0.19711 -0.39835,-0.95425 -0.59753,-1.43137 -0.26175,-0.92128 -0.57605,-1.82922 -0.78524,-2.76383 -0.0127,-0.0567 0.16355,-0.0314 0.17247,0.0261 0.11429,0.7364 0.1298,1.4849 0.17748,2.22859 0.22244,3.4698 0.0928,6.93988 0.0662,10.41388 -0.22499,11.5237 -0.63169,23.07225 -2.33835,34.48877 -2.1363,12.60948 -4.81112,25.20067 -9.99738,36.96163 -2.67427,5.73887 -0.50314,1.46811 -3.37662,6.29069 -0.17608,0.29552 -0.77511,0.78701 -0.45957,0.92404 0.11446,0.0497 3.71145,-1.30168 4.66964,-0.67087 -1.52389,-0.0154 -0.56119,0.0335 -3.02308,-0.37299 -4.32689,-0.71435 -8.63409,-1.5638 -12.99131,-2.07949 -7.40334,-0.90495 -14.85572,-1.10944 -22.30147,-1.47706 -10.64289,-0.29649 -21.29211,-0.0786 -31.93815,-0.12847 -7.07735,0.0127 -14.15463,0.0377 -21.23192,0.0663 -8.91052,-0.0169 -17.8276,-0.15804 -26.71749,-0.80962 -12.47715,-1.12164 -24.75907,-3.29981 -36.69485,-7.21821 -14.95008,-4.58085 -29.712875,-9.72102 -44.317848,-15.30744 -18.424547,-6.88789 3.283652,1.21342 -12.539382,-4.6531 -7.824515,-2.901 -1.731494,-0.72651 -7.190426,-2.58994 -0.685812,-0.23411 -1.341435,-0.5761 -2.05215,-0.71762 -0.380969,-0.0759 0.696273,0.34464 1.044409,0.51695 5.56146,5.3135 5.267246,3.75759 6.225236,10.20144 0.0022,0.015 -0.01125,-1.13425 -0.01146,-1.15318 -0.01418,-1.27587 -0.03688,-2.55195 -0.02264,-3.82789 0.120644,-3.11644 0.618076,-6.20258 1.072645,-9.28338 1.807592,-10.85934 3.978799,-21.66001 6.612265,-32.35037 3.555086,-15.58756 6.74659,-31.25708 9.875466,-46.93516 1.8406,-10.0743 3.790377,-20.21578 3.652071,-30.50411 0,-18.7077 -26.456693,-18.7077 -26.456693,0 z" />
    <path
       style="fill:#000000"
       id="path2"
       d="m 89.084176,335.86506 c 0.0034,10.47682 -0.6799,3.18763 26.456694,1.26028 0.41623,-0.0296 0,-0.83457 0,-1.25185 0,-0.56525 0,-1.13051 0,-1.69576 0,-1.66883 0,-3.33767 0,-5.00651 0,-18.70771 -26.456694,-18.70771 -26.456694,0 v 0 c 0,1.66884 0,3.33768 0,5.00651 0,0.56525 0,1.13051 0,1.69576 0,0.41728 -0.416234,1.22228 0,1.25185 27.136594,1.92735 26.453334,9.21654 26.456694,-1.26028 0,-18.7077 -26.456694,-18.7077 -26.456694,0 z" />
    <circle
       id="path3"
       style="fill:#000000;stroke:#000000"
       cx="148.17676"
       cy="337.51373"
       r="1.0360705" />
    <path
       style="fill:#000000"
       id="path4"
       d="m 245.29076,354.35032 c -5.04543,-2.16934 -10.48966,-3.11464 -15.83913,-4.19843 -18.33889,-3.6964 -23.56639,22.23871 -5.2275,25.93511 v 0 c 3.77656,0.75665 7.67729,1.29598 11.24086,2.82774 17.36967,6.94787 27.19544,-17.61655 9.82577,-24.56442 z" />
    <path
       style="fill:#000000"
       id="path5"
       d="m 176.59221,334.86943 c -3.93709,-0.22233 -7.74192,-1.16213 -11.5474,-2.13148 -2.01055,-0.50685 -4.02473,-0.99909 -6.03937,-1.48939 -18.17726,-4.42328 -24.43273,21.28325 -6.25546,25.70653 v 0 c 1.92849,0.46923 3.85653,0.94032 5.78117,1.42519 5.93151,1.50315 11.91816,2.77828 18.06106,2.94584 18.70771,0 18.70771,-26.45669 0,-26.45669 z" />
    <path
       style="fill:#000000"
       id="path6"
       d="m 88.469481,376.50058 c 3.943575,1.07571 7.991848,1.66615 12.000789,2.43326 18.37698,3.50213 23.32974,-22.48685 4.95276,-25.98898 v 0 c -3.51907,-0.66828 -7.074637,-1.17479 -10.536858,-2.11105 -18.149142,-4.53728 -24.565832,21.12948 -6.416691,25.66677 z" />
    <path
       style="fill:#000000"
       id="path7"
       d="m 153.58413,397.78231 c 2.48873,0 4.97747,0 7.4662,0 18.7077,0 18.7077,-26.45669 0,-26.45669 v 0 c -2.48873,0 -4.97747,0 -7.4662,0 -18.7077,0 -18.7077,26.45669 0,26.45669 z" />
    <path
       style="fill:#000000"
       id="path8"
       d="m 198.41303,407.19036 c 1.64896,0 3.29792,0 4.94687,0 18.70771,0 18.70771,-26.4567 0,-26.4567 v 0 c -1.64895,0 -3.29791,0 -4.94687,0 -18.70771,0 -18.70771,26.4567 0,26.4567 z" />
    <path
       style="fill:#000000"
       id="path9"
       d="m 380.21779,452.26857 c -3.3851,-2.12695 -6.05591,-5.09441 -8.66028,-8.081 -3.71849,-4.50979 -6.78135,-9.54821 -9.01244,-14.94746 -0.80713,-2.94307 -3.02865,-9.17455 -1.16089,-11.90656 0.11397,0.094 0.19504,0.2662 0.34192,0.28196 0.34851,0.0374 2.71529,-1.03156 2.99287,-1.13216 3.62643,-1.31435 1.37947,-0.6067 5.20788,-1.68028 5.96343,-1.48554 12.05026,-2.43179 18.11055,-3.43688 6.37351,-1.09735 10.72493,-3.73757 14.94711,-8.57191 4.01888,-4.75977 5.17337,-9.91542 4.93412,-16.03588 -0.84527,-6.71394 -4.24789,-12.61718 -7.2442,-18.56045 -2.46082,-4.66628 -5.08776,-9.24349 -8.19428,-13.51006 -1.77175,-2.62978 -4.38904,-4.60487 -5.99291,-7.34071 0.49147,0.26136 0.68862,2.22185 0.66725,0.84072 -0.22272,2.19508 0.53291,-1.7754 0.56705,-0.86724 -0.95461,1.93282 -0.11132,0.13217 0.16481,0.34732 0.38729,0.30176 -2.6578,1.71784 0.46269,0.19607 0.82344,-0.39789 1.69541,-0.55774 2.59046,-0.64343 0.0954,-0.003 0.19083,-0.007 0.28625,-0.01 18.64941,-1.47567 16.56249,-27.84993 -2.08692,-26.37425 v 0 c -0.48212,0.0424 -0.96423,0.0849 -1.44635,0.12733 -3.81266,0.49988 -7.531,1.46555 -11.00542,3.15239 -5.13832,2.53504 -9.23116,5.61653 -12.2212,10.58967 -2.29564,4.54097 -3.74983,9.32533 -3.74984,14.4636 0.19349,4.36193 1.04159,8.54412 3.39808,12.29847 2.08577,3.23542 4.56637,6.11083 7.1171,8.98177 2.30617,2.97541 3.95669,6.40416 5.81964,9.65956 1.20148,2.38254 2.36301,4.78529 3.56293,7.16823 0.15606,0.30992 0.35004,0.60038 0.49667,0.91488 0.14047,0.30127 0.0386,0.85608 0.36296,0.92884 0.27346,0.0614 0.0216,-0.5601 0.0324,-0.84015 0.0219,0.10522 0.0293,0.41682 0.0656,0.31567 0.3763,-1.04879 0.42353,-2.49724 1.48122,-3.20017 -1.19329,1.36809 -0.66326,0.66069 0.21171,0.0843 0.67698,-0.44598 2.81681,-0.85579 0.43557,-0.21348 -7.15313,1.19104 -14.3407,2.30718 -21.35146,4.18753 -9.13294,2.82531 -18.24313,6.58375 -23.60532,15.0556 -1.19094,1.88158 -1.94841,4.0048 -2.92262,6.00719 -0.42428,1.92196 -1.01046,3.81522 -1.27285,5.76588 -1.06807,7.94021 1.10721,16.00936 3.69897,23.42264 3.48462,7.9063 7.81953,15.41977 13.47912,21.99288 4.88207,5.48284 10.10172,10.75988 16.66026,14.23295 16.73269,8.36634 28.56448,-15.29724 11.8318,-23.66358 z" />
    <path
       style="fill:#000000"
       id="path10"
       d="m 353.09173,316.64561 c 6.09106,1.95052 12.13195,4.04744 18.16662,6.16748 7.98374,2.79401 15.99058,5.52388 23.87095,8.60053 6.54127,2.42183 12.8448,5.39722 19.19894,8.25321 3.74095,1.90514 7.70071,3.2748 11.67586,4.58914 2.32701,0.54168 4.47068,1.46673 6.71049,2.25938 2.49285,1.09974 5.13794,1.76861 7.73645,2.56052 4.39472,1.33094 8.43756,1.67605 12.96332,-0.24819 3.88127,-1.65023 5.22942,-3.97831 7.61675,-6.98683 5.16955,-7.77662 7.91445,-16.78585 10.52888,-25.66097 1.92785,-6.22064 3.84736,-12.44423 5.13276,-18.83325 2.06532,-10.19235 -2.0446,-17.66264 -7.39726,-25.91438 -5.42948,-7.59779 -11.16582,-14.97415 -16.96761,-22.29024 -3.19745,-4.41076 -7.00714,-8.15206 -11.44986,-11.27751 -5.67421,-3.84151 -12.06444,-5.99725 -18.70882,-7.41462 -8.08669,-1.69733 -16.17551,-1.10383 -24.18868,0.57589 -9.5361,2.53311 -15.16669,6.78329 -21.38817,14.24165 -3.73423,4.63608 -6.51994,9.91204 -9.66617,14.9387 -2.10255,3.55408 -4.89845,6.51949 -7.85634,9.35566 -2.87648,2.19793 -5.64174,4.49151 -8.17197,7.08422 -0.4023,0.43533 -0.8046,0.87066 -1.2069,1.306 -12.67203,13.76219 6.79065,31.68315 19.46268,17.92096 v 0 c 0.26929,-0.29403 0.53857,-0.58806 0.80786,-0.88209 2.23396,-2.40283 5.10284,-4.08885 7.46013,-6.37213 4.51289,-4.35989 8.69675,-9.02682 11.95897,-14.42136 2.5521,-4.11021 4.8424,-8.40046 7.76308,-12.26866 1.77928,-2.36205 3.50329,-4.26598 6.48493,-5.05617 4.40326,-1.03638 8.79982,-1.42826 13.27839,-0.49457 3.22322,0.58626 6.28256,1.52941 9.05674,3.33878 2.36587,1.43724 3.92736,3.73601 5.63739,5.86784 5.33688,6.72481 10.60012,13.51364 15.64132,20.46341 3.76092,5.46472 0.0816,-0.0145 2.84706,4.42141 0.13333,0.21387 0.24108,0.46775 0.45147,0.60652 0.0603,0.0398 0.42383,-0.41893 0.42356,-0.40207 -0.009,0.53076 -0.1552,1.05025 -0.2328,1.57538 -1.05508,5.60603 -2.9594,11.00484 -4.55493,16.47066 -1.76615,6.02545 -3.47907,12.19551 -6.62449,17.67365 1.20595,-0.40985 2.12664,-1.47881 3.34707,-1.84328 4.66556,-1.39336 3.79944,-0.89751 6.71034,-0.43291 0.49316,0.0787 -1.8814,-0.4045 -1.45623,-0.35214 -2.27427,-0.69089 -4.5778,-1.26141 -6.7541,-2.24049 -2.38007,-0.79185 -4.6829,-1.81367 -7.12933,-2.40102 -3.116,-1.01695 -6.21141,-2.069 -9.12471,-3.60117 -6.76441,-3.01834 -13.46155,-6.19642 -20.41997,-8.76398 -8.16045,-3.16773 -16.43107,-6.03131 -24.69822,-8.90674 -7.65019,-2.6874 -15.28526,-5.56839 -23.19391,-7.39701 -18.51968,-2.64567 -22.26123,23.54512 -3.74154,26.19079 z" />
    <path
       style="fill:#000000"
       id="path11"
       d="m 428.35847,278.01007 c -0.0665,-2.83562 0.0921,-5.68596 0.83804,-8.43248 0.54207,-1.35283 0.23848,-0.57306 0.89469,-2.34552 6.43002,-17.56796 -18.41483,-26.66137 -24.84484,-9.09341 v 0 c -1.19034,3.27735 -0.57166,1.47242 -1.81483,5.42874 -1.0434,4.74922 -1.69847,9.56548 -1.52976,14.44267 0,18.70771 26.4567,18.70771 26.4567,0 z" />
    <path
       style="fill:#000000"
       id="path12"
       d="m 122.79837,165.00869 c 4.61328,-8.80208 9.22348,-17.61865 13.04454,-26.80527 1.44392,-3.4715 2.73096,-7.0062 4.09644,-10.5093 8.16425,-22.53509 11.83071,-46.23088 14.25891,-69.966245 0.42566,-6.462663 1.2674,-12.927333 1.17054,-19.41795 -0.022,-1.471012 -0.20786,-2.935883 -0.24944,-4.406471 -0.009,-0.317862 0.17851,-1.256555 0.098,-0.948915 -0.48836,1.867117 -0.88273,3.757566 -1.32409,5.636349 -1.2255,1.288643 -2.76199,2.340771 -3.67651,3.86593 -0.21816,0.363831 0.83847,0.151153 1.26261,0.159766 1.63972,0.0333 3.28044,-0.07213 4.92007,-0.03421 12.30444,0.284559 24.56501,1.492936 36.8175,2.558302 35.38748,3.886851 70.89398,6.600968 106.25993,10.673687 13.35158,1.598597 26.48611,4.538124 39.8111,6.315713 8.99802,1.200361 12.24077,1.398947 21.25074,2.215321 6.12888,0.615838 12.30409,0.689402 18.43413,1.294663 1.04889,0.103564 7.19582,0.436047 8.876,2.056278 0.3101,0.299037 -0.8635,0.691404 -1.94933,1.116681 -1.58991,15.570982 -6.31444,30.512784 -10.91657,45.395941 -3.36031,11.01014 -7.79788,21.64411 -11.51011,32.52744 -1.75017,5.07643 -2.53593,10.37315 -2.78343,15.71481 -0.17709,5.32119 0.44551,10.62358 0.74615,15.93087 0.11621,3.53479 0.34081,7.07263 0.34315,10.61067 5.9e-4,0.8952 0.12269,1.81244 -0.08,2.68439 -0.11055,0.47559 -0.33906,-0.98007 -0.20692,-1.45011 0.40836,-1.45259 1.18944,-2.7735 1.78416,-4.16025 -0.34753,-0.27014 -0.60402,-0.77287 -1.04259,-0.81042 -2.29069,-0.19614 -4.59705,0.15625 -6.89598,0.13067 -3.95671,-0.044 -7.91241,-0.17656 -11.86601,-0.33944 -17.30221,-0.71279 -34.59602,-1.80051 -51.89121,-2.66735 -26.80985,-0.94989 -53.57725,-2.52101 -80.28911,-4.9808 -10.99539,-1.29541 -22.05285,-2.13056 -32.99493,-3.84802 -5.56197,-1.17502 -11.0259,-2.66033 -16.64771,-3.53581 -7.23913,-0.96438 -14.55796,-0.58927 -21.80768,-1.38064 -3.05516,-0.2083 -5.65732,-1.4831 -8.31677,-2.83782 -16.6922,-8.44681 -28.6378,15.15953 -11.9456,23.60635 v 0 c 5.53579,2.78919 11.31528,4.96944 17.5486,5.54861 6.85238,0.67845 13.72601,0.6251 20.58244,1.22531 5.58933,0.79383 10.95804,2.60771 16.53108,3.51799 11.48932,1.76531 23.07894,2.73946 34.62525,4.04932 27.07836,2.49207 54.2126,4.09619 81.39016,5.05904 17.50799,0.87738 35.01979,2.02952 52.53728,2.69182 5.886,0.22254 18.90637,0.76676 25.19665,-0.41638 3.62484,-0.68179 7.0219,-2.26055 10.53286,-3.39083 2.6119,-2.80918 5.8001,-5.17642 7.8357,-8.42756 3.36275,-5.37081 1.41871,-16.176 1.491,-22.38417 -0.25422,-4.43616 -0.76275,-8.86559 -0.72687,-13.30877 0.0977,-2.83497 0.46214,-5.64499 1.40669,-8.33825 3.73997,-11.12391 8.36949,-21.94915 11.7311,-33.20968 3.14996,-10.2002 6.42461,-20.40358 8.70642,-30.844905 1.33705,-6.118184 3.09514,-15.555727 2.85871,-21.893516 -0.13794,-3.697607 -1.09738,-7.318542 -1.64607,-10.977814 -1.84368,-3.229239 -3.0745,-6.896206 -5.53104,-9.687717 -9.71281,-11.037214 -28.50766,-9.352901 -41.73387,-10.620411 -8.24143,-0.739116 -11.50856,-0.944461 -19.71742,-2.031821 -13.6206,-1.804211 -27.04049,-4.856999 -40.6957,-6.432654 -35.612,-4.09488 -71.36273,-6.84591 -106.99691,-10.748054 -11.33171,-0.981629 -18.46268,-1.711159 -29.50313,-2.291683 -4.82728,-0.253825 -12.94105,-0.623237 -18.04683,-0.09562 -2.34746,0.242582 -4.81095,0.303613 -6.9658,1.265923 -3.19486,1.426753 -5.84898,3.841925 -8.77348,5.762887 -1.14674,2.887029 -2.58986,5.673306 -3.44024,8.661085 -0.50393,1.770552 0.10054,3.916152 0.14171,5.731727 0.1306,5.759599 -0.70886,11.495444 -1.03911,17.231273 -2.16428,21.377965 -5.35176,42.739174 -12.60175,63.07115 -1.20075,3.10753 -2.32984,6.24371 -3.60226,9.32259 -3.64959,8.83095 -8.11825,17.27728 -12.538787,25.73451 -8.366341,16.73268 15.297247,28.56447 23.663587,11.83179 z" />
    <path
       style="fill:#000000"
       id="path13"
       d="m 183.1487,122.97634 c -5.56462,7.76059 -10.05958,16.24346 -14.57692,24.64064 -0.76074,1.48847 -1.52147,2.97693 -2.28221,4.4654 -8.50364,16.66332 15.06186,28.68929 23.5655,12.02596 v 0 c 0.67276,-1.32056 1.34553,-2.64112 2.0183,-3.96168 3.76092,-6.99757 7.52471,-14.02812 11.93454,-20.64296 11.68661,-14.60826 -8.97259,-31.13563 -20.65921,-16.52736 z" />
    <path
       style="fill:#000000"
       id="path14"
       d="m 182.48929,141.30626 c 7.55499,9.7127 15.19469,19.35083 23.2035,28.69403 4.55309,5.1461 9.48294,9.91839 14.51018,14.59113 13.72515,12.71214 31.70284,-6.69816 17.97768,-19.4103 v 0 c -4.30382,-3.96899 -8.50045,-8.04696 -12.41115,-12.41111 -8.01747,-9.32951 -15.58838,-19.01476 -23.19279,-28.68154 -12.17481,-14.20395 -32.26223,3.01384 -20.08742,17.21779 z" />
    <path
       style="fill:#000000"
       id="path15"
       d="m 199.30414,101.80403 c 1.78189,2.19926 0.76632,-0.0914 0.58563,-1.02703 -0.27193,-1.408042 -0.26178,-1.596712 -0.43244,-3.094109 0.0906,-0.02623 0.2144,-0.0039 0.27188,-0.07868 0.52475,-0.682992 0.66827,-1.590349 1.07372,-2.350248 0.74442,-1.3952 1.58253,-2.467951 2.97436,-3.201136 0.55295,-0.344584 1.08321,-0.728579 1.65886,-1.033752 1.28358,-0.680488 1.60247,-0.727507 2.91832,-0.988316 0.52153,-0.103369 1.03822,-0.266384 1.56961,-0.283522 0.11014,-0.0036 0.34354,0.182026 0.24211,0.225092 -0.40081,0.17018 -0.85858,0.145947 -1.28787,0.21892 1.04628,0.296795 -1.49653,-0.331449 -1.38904,0.120711 0.0922,0.387766 0.38597,0.697938 0.59786,1.035519 0.47278,0.753224 0.98399,1.481898 1.45554,2.235895 1.60089,2.559804 1.56599,2.58411 2.95993,5.146038 0.51026,1.148174 1.17404,2.524338 1.53234,3.749018 0.0656,0.22423 0.13707,0.92149 0.0717,0.69719 -1.05586,-3.625755 -0.25936,-5.033308 1.4916,-8.146733 -0.13053,-0.04038 -0.2582,-0.150716 -0.3916,-0.121139 -1.80568,0.400352 -3.51687,1.147206 -5.2852,1.689202 -3.60267,1.104224 -7.23944,2.07662 -10.84452,3.172905 -17.89121,5.466525 -10.16038,30.768515 7.73083,25.301985 v 0 c 8.74643,-2.68815 17.97532,-4.46706 25.67776,-9.67689 1.72676,-1.88924 3.86467,-3.47224 5.18029,-5.66771 4.70199,-7.84657 1.74306,-16.376771 -1.98234,-23.749367 -3.76325,-6.788748 -7.87181,-14.457111 -14.63324,-18.733621 -1.7639,-1.115644 -3.76815,-1.795857 -5.65223,-2.693786 -2.05174,-0.339571 -4.07853,-0.907857 -6.15523,-1.018712 -8.37642,-0.447139 -16.68099,3.925954 -23.11522,8.81206 -1.48664,1.446361 -3.10275,2.770608 -4.45994,4.339082 -4.46244,5.157136 -7.56475,12.233467 -8.32638,19.015112 -0.2001,1.781709 -0.0815,3.584895 -0.12224,5.377342 0.96386,7.03054 2.57526,13.94418 7.3774,19.43639 13.22834,13.22835 31.93605,-5.47936 18.7077,-18.70771 z" />
    <path
       style="fill:#000000"
       id="path16"
       d="m 280.77315,131.8027 c -0.22968,9.31203 1.51078,18.50254 3.63868,27.52232 1.43408,6.28395 3.82489,12.26477 7.09082,17.80677 0.25726,0.42777 0.51453,0.85555 0.77179,1.28332 9.64257,16.0312 32.3141,2.39455 22.67154,-13.63665 v 0 c -0.27413,-0.45568 -0.54825,-0.91136 -0.82237,-1.36705 -2.04369,-3.05885 -3.04057,-6.72216 -3.97833,-10.23022 -1.6967,-6.99752 -3.11767,-14.14201 -2.91543,-21.37849 0,-18.70771 -26.4567,-18.70771 -26.4567,0 z" />
    <path
       style="fill:#000000"
       id="path17"
       d="m 294.65069,103.13545 c 0.41327,-0.73763 0.98319,1.328 0.3498,-1.59544 0.27172,-2.215748 0.34024,0.1072 0.56852,0.23701 0.33253,0.1891 0.71091,-0.29021 1.03988,-0.48544 1.30676,-0.87779 2.72332,-1.570687 4.21683,-2.068323 0.51439,-0.171394 1.02742,-0.371224 1.56462,-0.444638 0.11801,-0.01613 0.40745,0.132134 0.30301,0.189404 -0.3833,0.210182 -0.84456,0.22607 -1.26684,0.339105 -0.41854,1.422742 -1.94184,-0.843931 -2.58665,-0.264766 -0.17806,0.159936 0.0842,0.475813 0.18025,0.695042 0.98228,2.242146 1.76714,3.992546 2.50612,6.366576 0.65162,2.95875 1.31662,5.96759 1.47964,9.00471 0.009,0.17154 -0.0575,0.68171 -0.071,0.51045 -0.0416,-0.52986 -0.009,-1.06293 -0.0141,-1.5944 -0.084,-2.2382 1.94082,-3.23334 2.60554,-5.13715 -16.814,8.20169 -5.21506,31.98028 11.59894,23.77859 v 0 c 1.4365,-0.79558 3.02694,-1.36131 4.3095,-2.38674 5.22092,-4.17419 4.68881,-4.50171 7.17741,-9.93733 0.25974,-1.60694 0.64029,-3.19896 0.77924,-4.82081 0.13967,-1.63034 -0.16857,-4.30559 -0.38541,-5.97782 -0.51535,-3.97432 -1.23538,-7.92284 -2.36963,-11.772424 -2.88554,-8.416027 -6.76897,-17.534362 -14.93486,-22.183542 -1.92492,-1.095941 -4.12597,-1.613096 -6.18896,-2.419644 -2.07553,-0.1454 -4.14765,-0.51941 -6.22661,-0.436199 -7.81446,0.312776 -15.03586,4.811833 -20.97799,9.454092 -1.19836,1.23175 -2.51021,2.362447 -3.59506,3.695249 -5.4635,6.712227 -7.10449,15.031678 -5.02397,23.358388 2.49685,7.6463 5.781,13.61879 13.12998,17.55964 16.73268,8.36634 28.56447,-15.29724 11.83179,-23.66359 z" />
  </g>
</svg>
